<?xml version="1.0" encoding="UTF-8"?>
<svg width="456px" height="512px" viewBox="0 0 456 512" version="1.1" xmlns="http://www.w3.org/2000/svg" xmlns:xlink="http://www.w3.org/1999/xlink">
    <!-- Generator: Sketch Beta 63.1 (92452) - https://sketch.com -->
    <title>Group 2</title>
    <desc>Created with Sketch Beta.</desc>
    <g id="Page-1" stroke="none" stroke-width="1" fill="none" fill-rule="evenodd">
        <g id="Group-2" fill-rule="nonzero">
            <path d="M304.18,7.5 C262.107,7.5 228,41.607 228,83.68 L228,109.368 L251.82,109.368 C293.893,109.368 328,75.261 328,33.188 L328,31.32 C328,18.165 317.336,7.5 304.18,7.5 Z" id="Path" fill="#DFEA73"></path>
            <g id="Group" transform="translate(7.000000, 125.000000)" fill="#FF7B94">
                <path d="M296.533,1.455 C270.201,-1.972 244.783,0.831 221,8.982 C204.101,3.19 185.994,0.004 167.131,0.004 C75.357,0.004 0.959,74.401 0.959,166.177 C0.959,257.953 75.357,379.5 167.131,379.5 L274.869,379.5 C365.885,379.5 441.041,258.579 441.041,166.176 C441.041,81.75 378.063,12.08 296.533,1.455 Z" id="Path"></path>
            </g>
            <g id="Group" fill="#000000">
                <path d="M235.576,123.814 C235.735,121.341 236.164,118.921 236.86,116.59 C237.885,116.757 238.929,116.867 240,116.867 L251.82,116.867 C268.745,116.867 285.051,111.839 298.976,102.324 C302.396,99.987 303.275,95.321 300.938,91.9 C298.6,88.48 293.934,87.6 290.514,89.939 C279.093,97.742 265.713,101.867 251.82,101.867 L246.108,101.867 L268.6,79.374 C271.529,76.444 271.529,71.696 268.6,68.767 C265.671,65.839 260.922,65.839 257.994,68.767 L235.5,91.262 L235.5,83.68 C235.5,46.257 265.752,15 304.459,15 C313.305,15.035 320.5,22.355 320.5,31.318 C320.5,45.272 317.627,58.067 309.332,70.741 C307.063,74.207 308.034,78.855 311.5,81.124 C314.966,83.392 319.614,82.421 321.883,78.956 C331.643,64.042 335.5,48.5 335.5,31.318 C335.5,14.117 321.447,0.068 304.334,-2.48689958e-14 C258.193,-2.48689958e-14 220.5,37.538 220.5,83.68 L220.5,97.368 C220.5,101.424 221.747,105.192 223.874,108.316 C221.917,113.219 220.782,118.454 220.551,123.853 C109.719,93.073 0.459,176.929 0.459,291.176 C0.459,350.791 30.355,420.823 74.853,465.444 C77.779,468.379 82.527,468.383 85.459,465.459 C88.392,462.534 88.398,457.785 85.474,454.853 C43.596,412.859 15.459,347.083 15.459,291.177 C15.459,185.953 116.89,109.058 218.709,138.899 C224.75,140.668 231.291,140.654 237.376,138.872 C339.089,109.09 440.54,186.096 440.54,291.178 C440.54,379.551 368.171,497.002 281.868,497.002 L174.132,497.002 C151.465,497.001 128.982,489.108 107.309,473.543 C103.945,471.127 99.259,471.896 96.842,475.26 C94.426,478.624 95.195,483.311 98.559,485.727 C122.834,503.161 148.261,512.002 174.132,512.002 L281.869,512.002 C305.085,512.002 328.106,504.758 350.291,490.47 C410.915,451.428 455.541,364.572 455.541,291.178 C455.541,176.548 346.033,93.201 235.576,123.814 L235.576,123.814 Z" id="Path"></path>
            </g>
        </g>
    </g>
</svg>