<?xml version="1.0" encoding="UTF-8"?>
<svg viewBox="0 0 272 513" version="1.1" xmlns="http://www.w3.org/2000/svg" xmlns:xlink="http://www.w3.org/1999/xlink">
    <!-- Generator: Sketch Beta 63.1 (92452) - https://sketch.com -->
    <title>040-pear-9</title>
    <desc>Created with Sketch Beta.</desc>
    <g id="Page-1" stroke="none" stroke-width="1" fill="none" fill-rule="evenodd">
        <g id="040-pear-9" fill-rule="nonzero">
            <path d="M218.515619,222.721519 C224.173619,179.540519 191.828619,143.813519 150.833619,140.305519 C101.843619,136.113519 62.8376189,175.635519 69.5856189,223.458519 C74.5736189,258.808519 65.0976189,294.757519 43.1016189,322.881519 C25.9966189,344.753519 15.8526189,372.328519 16,402.277519 C16.3576189,473.849519 76.8846189,515.123519 148.439619,512.685519 C217.076619,510.346519 271.999619,470.810519 271.999619,401.626519 C271.999619,371.959519 261.899619,344.649519 244.949619,322.947519 C222.790619,294.573519 213.839619,258.414519 218.515619,222.721519 L218.515619,222.721519 Z" id="Path" fill="#FFE070"></path>
            <path d="M43.6502984,18.9835137 C39.7460252,19.3728934 37.1024342,22.7253998 37.6341207,26.6113389 C39.1113189,37.3987269 44.0257092,58.7369067 60.2286174,71.506988 C77.481803,85.1047192 93.3084272,79.6603884 99.6406484,76.4624116 C103.139827,74.6944882 105.708336,71.4423824 106.611941,67.6227949 C108.245415,60.7213461 109.847459,44.0661988 92.5942735,30.4684675 C76.3913653,17.6992593 54.4883231,17.9026796 43.6502984,18.9835137 Z" id="Path" fill="#BEE294"></path>
            <g id="Group" fill="#231F20">
                <path d="M9.025,373.621 C13.345,374.553 17.6,371.803 18.531,367.486 C22.303,349.978 30.158,333.231 41.244,319.055 C64.388,289.464 74.631,251.021 69.348,213.585 C63.283,170.686 98.299,135.793 141.992,139.521 C165.278,141.514 186.097,155.401 196.324,175.763 C198.308,179.712 203.116,181.305 207.064,179.322 C211.012,177.339 212.605,172.531 210.623,168.583 C198.566,144.578 174.735,127.833 147.733,124.081 C154.586,111.083 170.319,89.273 199.917,85.716 C204.304,85.189 207.433,81.205 206.905,76.819 C206.379,72.433 202.385,69.303 198.009,69.831 C168.071,73.429 149.706,91.721 139.381,106.997 C135.908,95.994 129.716,82.36 118.736,68.501 C119.01,67.722 119.245,66.927 119.437,66.114 C127.69,31.22 96.244,-5.131 38.741,0.6 C29.754,1.497 23.492,9.433 24.719,18.383 C31.039,64.534 59.928,86.796 85.346,86.796 C93.929,86.796 102.478,84.256 108.194,81.042 C120.91,98.135 125.408,114.52 126.986,123.697 C80.084,128.379 46.883,168.908 53.505,215.821 C58.184,248.977 49.121,283.012 28.641,309.199 C16.075,325.267 7.17,344.258 2.891,364.116 C1.96,368.435 4.707,372.691 9.025,373.621 Z M63.476,62.438 C56.565,56.991 44.432,43.797 40.612,16.493 C68.044,13.823 83.727,22.548 90.643,27.999 C106.314,40.35 105.655,54.873 103.867,62.43 C103.376,64.506 101.967,66.293 100.06,67.257 C93.126,70.759 79.152,74.792 63.476,62.438 Z" id="Shape"></path>
                <path d="M243.096,309.269 C222.576,282.996 213.766,249.519 218.288,215.006 C218.861,210.625 215.775,206.608 211.394,206.034 C207.018,205.457 202.997,208.546 202.422,212.927 C197.339,251.725 207.305,289.438 230.485,319.117 C280.987,383.777 259.297,491.871 140.006,495.934 C90.985,497.605 41.976,477.261 23.36,432.39 C21.666,428.309 16.986,426.373 12.904,428.067 C8.824,429.76 6.888,434.441 8.581,438.522 C29.859,489.802 84.828,513.83 140.552,511.925 C213.844,509.428 271.84,466.217 271.84,392.871 C271.84,362.256 261.901,333.347 243.096,309.269 Z" id="Path"></path>
                <path d="M16.03,400.483 C15.066,395.549 9.778,392.723 5.131,394.663 C2.254,395.838 0.191,398.684 0.191,402.043 C0.191,406.549 3.855,410.043 8.191,410.043 C13.167,410.043 17.005,405.521 16.03,400.483 Z" id="Path"></path>
                <path d="M59.35,431.241 C57.054,427.466 52.132,426.267 48.358,428.562 C44.583,430.857 43.383,435.779 45.678,439.554 C52.804,451.273 66.622,466.884 91.987,474.7 C96.184,475.995 100.68,473.657 101.989,469.411 C103.29,465.189 100.922,460.711 96.7,459.41 C76.133,453.071 65.037,440.593 59.35,431.241 L59.35,431.241 Z" id="Path"></path>
            </g>
        </g>
    </g>
</svg>