<?xml version="1.0" encoding="UTF-8"?>
<svg viewBox="0 0 284 512" version="1.1" xmlns="http://www.w3.org/2000/svg" xmlns:xlink="http://www.w3.org/1999/xlink">
    <!-- Generator: Sketch Beta 63.1 (92452) - https://sketch.com -->
    <title>045-food-and-restaurant-1</title>
    <desc>Created with Sketch Beta.</desc>
    <g id="Page-1" stroke="none" stroke-width="1" fill="none" fill-rule="evenodd">
        <g id="045-food-and-restaurant-1" fill-rule="nonzero">
            <path d="M95.0019864,25.642314 C95.0655551,19.947267 96.794431,13.918927 101.172965,10.3088988 C105.979144,6.34716912 113.083427,6.1737405 118.841209,8.52326229 C124.598029,10.873753 129.223133,15.3664262 133.253003,20.1245711 C144.940974,33.9232884 152.883208,50.9028221 156,68.75725 C142.050525,69.7619733 127.505815,67.6478881 115.591501,60.279594 C103.677187,52.9112999 94.8478805,39.7094096 95.0019864,25.642314 Z" id="Path" fill="#BEE294"></path>
            <path d="M21.063616,414.267 C36.860616,469.761 87.789616,510.938 148.026616,511.778 C222.872616,512.82 283.873616,452.46 283.873616,377.855 C283.873616,346.364 273.004616,317.411 254.813616,294.543 C231.405616,265.117 216.474616,229.863 212.975616,192.426 L212.523616,187.588 C212.523616,153.165 184.359616,125 149.936616,125 L149.936616,125 C115.513616,125 87.349616,153.165 87.349616,187.588 L86.714616,194.383 C83.301616,230.898 68.664616,265.279 45.636616,293.822 C26.905616,317.04 15.769616,346.641 16.003616,378.85" id="Path" fill="#DFEA73"></path>
            <path d="M252.817,282.438 C229.797,253.5 215.89,219.579 212.596,184.339 L212.176,179.844 C211.996,144.244 185.166,114.853 150.662,110.585 C150.627,101.819 151.747,94.173 154.097,87.388 C157.341,78.027 163.055,70.375 170.186,65.841 C177.729,61.048 186.99,59.914 194.359,62.88 C201.724,65.847 207.064,73.525 206.781,80.74 C206.616,84.928 209.879,88.457 214.067,88.621 C218.262,88.77 221.784,85.524 221.948,81.335 C222.487,67.593 213.473,54.215 200.029,48.8 C188.2,44.036 173.645,45.657 162.042,53.032 C158.135,55.515 154.554,58.625 151.371,62.235 C147.152,45.318 139.065,29.542 127.717,16.224 C123.58,11.367 117.808,5.376 109.831,2.138 C106.387,0.739 102.629,0 98.966,0 C93.168,0 87.931,1.779 83.826,5.142 C78.005,9.913 74.741,17.588 74.64,26.754 C74.459,43.008 84.269,59.612 99.631,69.055 C110.397,75.672 123.967,79.17 138.877,79.17 C139.58,79.17 140.296,79.147 141.007,79.132 C140.566,80.212 140.142,81.304 139.755,82.419 C136.864,90.764 135.472,99.966 135.487,110.344 C99.953,113.631 72.009,143.508 71.824,179.844 L71.221,186.297 C68.005,220.71 54.371,253.692 31.792,281.678 C11.361,307.004 0.239,338.913 0.477,371.527 C0.507,375.699 3.899,379.061 8.065,379.061 C8.083,379.061 8.102,379.061 8.122,379.061 C12.313,379.031 15.686,375.608 15.656,371.416 C15.445,342.299 25.37,313.813 43.607,291.208 C68.065,260.892 82.839,225.103 86.334,187.71 L86.968,180.914 C86.99,180.68 87.001,180.444 87.001,180.209 C87.001,149.882 111.673,125.21 142,125.21 C172.327,125.21 196.999,149.882 196.999,180.209 C196.999,180.445 197.01,180.681 197.032,180.915 L197.484,185.753 C201.052,223.935 216.079,260.637 240.938,291.888 C258.87,314.43 268.348,341.606 268.348,370.475 C268.348,404.557 254.983,436.507 230.712,460.44 C206.448,484.367 174.278,497.263 140.196,496.809 C84.877,496.038 35.627,458.207 20.428,404.809 C19.281,400.779 15.082,398.442 11.051,399.588 C7.02,400.736 4.682,404.934 5.83,408.966 C13.994,437.647 31.556,463.629 55.28,482.124 C79.786,501.23 109.078,511.556 139.986,511.986 C140.667,512.001 141.342,512.001 142.022,512.001 C179.462,512.001 214.677,497.573 241.372,471.249 C268.557,444.441 283.528,408.652 283.528,370.476 C283.528,338.137 272.907,307.695 252.817,282.438 Z M107.58,56.125 C96.667,49.417 89.696,37.955 89.818,26.924 C89.868,22.458 91.225,18.705 93.447,16.884 C95.167,15.474 97.398,15.179 98.968,15.179 C100.692,15.179 102.476,15.533 104.127,16.203 C107.972,17.764 111.686,20.807 116.169,26.068 C125.555,37.085 132.37,50.041 136.145,63.947 C125.145,63.566 115.317,60.881 107.58,56.125 Z" id="Shape" fill="#000000"></path>
        </g>
    </g>
</svg>