<?xml version="1.0" encoding="UTF-8"?>
<svg viewBox="0 0 376 512" version="1.1" xmlns="http://www.w3.org/2000/svg" xmlns:xlink="http://www.w3.org/1999/xlink">
    <!-- Generator: Sketch Beta 63.1 (92452) - https://sketch.com -->
    <title>032-pear-3</title>
    <desc>Created with Sketch Beta.</desc>
    <g id="Page-1" stroke="none" stroke-width="1" fill="none" fill-rule="evenodd">
        <g id="032-pear-3" fill-rule="nonzero">
            <path d="M323.764334,362.524 C323.764334,452.315 250.655334,506.769 160.717334,506.137 C156.555334,506.103 152.438334,505.957 148.355334,505.697 L148.344334,505.697 C64.6443338,500.238 -1.19066615,445.502 0.0163338453,360.189 C0.648333845,315.999 18.9873338,276.117 48.2443338,247.277 C60.8763338,234.836 68.9413338,218.595 71.3543338,201.023 C71.4333338,200.504 71.5013338,200.042 71.5803338,199.636 C80.1743338,154.758 117.338334,121 161.878334,121 L162.352334,121 C206.678334,121.237 243.616334,154.915 252.177334,199.636 C252.222334,199.839 252.256334,200.053 252.290334,200.29 C255.200334,218.438 263.535334,235.254 276.517334,248.27 C305.707334,277.538 323.764334,317.916 323.764334,362.524 Z" id="Path" fill="#DFEA73"></path>
            <path d="M335.175293,92.4742526 L376,49.3422118 L321.986696,24.6682085 C288.827819,9.52012185 249.799488,25.8751733 237.336221,60.1419316 L231,77.5625218 L243.404195,91.3360634 C267.801018,118.429808 310.113182,118.95386 335.175293,92.4742526 Z" id="Path" fill="#BEE294"></path>
            <path d="M254.042,476.041 C229.683,488.712 200.484,495.32 169.692,495.076 C122.471,494.743 81.017,478.779 52.965,450.127 C29.185,425.837 16.885,393.88 17.397,357.711 C17.97,317.196 34.202,279.195 63.103,250.708 C76.916,237.093 85.992,218.938 88.66,199.584 C88.71,199.223 88.759,198.902 88.811,198.629 C92.688,178.389 103.097,160.027 118.12,146.925 C121.641,143.855 122.007,138.511 118.935,134.99 C115.864,131.469 110.52,131.103 107,134.175 C89.139,149.751 76.778,171.511 72.192,195.452 C72.092,195.978 71.992,196.589 71.898,197.276 C69.737,212.952 62.396,227.649 51.225,238.659 C19.137,270.287 1.114,312.481 0.478,357.471 C-0.099,398.246 13.869,434.379 40.873,461.961 C72.102,493.86 117.807,511.628 169.57,511.993 C170.102,511.999 170.634,511.999 171.166,511.999 C204.152,511.999 235.476,504.766 261.847,491.047 C265.991,488.892 267.604,483.783 265.447,479.638 C263.296,475.496 258.188,473.883 254.042,476.041 Z" id="Path" fill="#000000"></path>
            <path d="M198.452,80.049 C203.357,80.049 208.684,79.509 214.434,78.283 L223.869,88.757 C237.452,103.836 256.882,112.629 277.175,112.88 C277.475,112.883 277.772,112.886 278.071,112.886 C298.045,112.885 317.317,104.606 331.063,90.086 L373.219,45.559 C375.097,43.576 375.901,40.808 375.38,38.127 C374.859,35.447 373.075,33.182 370.591,32.048 L314.817,6.575 C296.356,-1.855 275.033,-2.194 256.313,5.649 C237.595,13.491 222.878,28.927 215.94,47.999 L210.95,61.714 C182.022,67.833 168.531,51.158 166.802,48.814 C163.368,42.235 159.127,36.17 153.898,30.942 C150.594,27.638 145.238,27.638 141.936,30.942 C138.632,34.246 138.632,39.602 141.936,42.904 C158.136,59.104 162.742,86.823 163.343,110.253 C154.08,110.974 145.008,113.017 136.293,116.397 C131.937,118.087 129.776,122.987 131.465,127.343 C133.153,131.699 138.054,133.86 142.411,132.171 C149.102,129.576 156.048,127.931 163.141,127.24 C162.767,135.108 162.08,141.694 161.529,146.079 C159.947,145.242 158.46,144.16 157.13,142.831 C153.826,139.526 148.47,139.527 145.168,142.831 C141.864,146.135 141.864,151.491 145.168,154.793 C152.054,161.679 161.098,165.121 170.143,165.121 C179.188,165.121 188.233,161.679 195.118,154.793 C198.422,151.489 198.422,146.133 195.118,142.831 C191.814,139.527 186.458,139.527 183.156,142.831 C181.781,144.206 180.238,145.312 178.596,146.16 C179.166,141.399 179.784,134.953 180.122,127.445 C215.658,131.752 245.464,160.351 252.796,198.637 C252.82,198.76 252.842,198.893 252.864,199.027 C256.107,219.262 265.299,237.458 279.448,251.648 C308.323,280.603 324.225,319.057 324.225,359.926 C324.225,401.677 307.755,436.796 276.596,461.487 C272.935,464.388 272.319,469.709 275.22,473.37 C276.889,475.477 279.36,476.575 281.855,476.575 C283.696,476.575 285.549,475.977 287.103,474.744 C321.951,447.129 341.143,406.351 341.143,359.923 C341.143,314.544 323.487,271.848 291.428,239.699 C279.804,228.042 272.246,213.052 269.567,196.34 C269.515,196.017 269.463,195.716 269.41,195.446 C260.558,149.227 223.872,114.842 180.304,110.433 C180.03,99.524 178.942,87.634 176.374,76.008 C182.482,78.403 189.82,80.049 198.452,80.049 Z M231.837,53.783 C237.245,38.918 248.259,27.365 262.849,21.251 C277.438,15.14 293.398,15.392 307.787,21.963 L352.799,42.519 L318.779,78.451 C307.903,89.939 293.2,96.157 277.385,95.96 C261.568,95.764 247.026,89.184 236.438,77.43 L227.031,66.988 L231.837,53.783 Z" id="Shape" fill="#000000"></path>
        </g>
    </g>
</svg>