<?xml version="1.0" encoding="UTF-8"?>
<svg viewBox="0 0 342 512" version="1.1" xmlns="http://www.w3.org/2000/svg" xmlns:xlink="http://www.w3.org/1999/xlink">
    <!-- Generator: Sketch Beta 63.1 (92452) - https://sketch.com -->
    <title>033-pear-4</title>
    <desc>Created with Sketch Beta.</desc>
    <g id="Page-1" stroke="none" stroke-width="1" fill="none" fill-rule="evenodd">
        <g id="033-pear-4" fill-rule="nonzero">
            <path d="M161.740432,18.6187638 L147.804064,36.91359 C146.54811,38.5626985 146.803481,40.8603533 148.291178,42.3048013 C170.565739,63.946963 171.02468,92 171.02468,92 L184.821094,90.9739689 C187.657443,72.5790865 186.548713,42.4812641 168.135621,18.5077924 C166.537051,16.4284421 163.330823,16.5321367 161.740432,18.6187638 Z" id="Path" fill="#DFEA73" transform="translate(166.500000, 54.500000) rotate(5.000000) translate(-166.500000, -54.500000) "></path>
            <path d="M77.409,203.718 L77.409,178.063 C77.409,126.114 119.522,84 171.472,84 L171.472,84 C223.421,84 265.535,126.113 265.535,178.063 L265.535,203.716 C265.535,272.125 333.944,290.796 333.944,383.29 C333.944,443.148 291.188,503.006 231.332,503.006 C205.676,503.006 197.125,493.03 171.472,493.03 C145.819,493.03 137.267,503.006 111.612,503.006 C51.756,503.006 9,443.148 9,383.29 C9,290.796 77.409,272.126 77.409,203.718 Z" id="Path" fill="#FFDC64"></path>
            <path d="M301.991,275.317 C286.478,253.043 273.08,233.808 273.08,204.694 L273.08,179.04 C273.08,128.712 236.468,86.78 188.481,78.464 C190.032,61.552 189.038,28.687 163.967,2.476 C162.388,0.826 160.188,-0.075 157.899,9.11912398e-05 C155.617,0.083 153.477,1.131 152.015,2.885 L130.637,28.538 C129.26,30.189 128.605,32.326 128.819,34.466 C129.033,36.606 130.097,38.571 131.773,39.918 C148.88,53.67 154.084,69.809 155.666,78.112 C106.627,85.532 68.921,127.965 68.921,179.04 L68.921,204.695 C68.921,233.807 55.523,253.043 40.01,275.316 C21.496,301.896 0.512,332.023 0.512,384.268 C0.512,415.721 11.682,447.558 31.157,471.617 C52.239,497.66 80.644,512.001 111.14,512.001 C125.114,512.001 134.367,509.302 143.316,506.692 C151.545,504.291 159.319,502.024 171,502.024 C182.681,502.024 190.455,504.291 198.684,506.692 C207.633,509.302 216.886,512.001 230.86,512.001 C261.357,512.001 289.761,497.66 310.843,471.617 C330.318,447.558 341.488,415.721 341.488,384.268 C341.488,332.023 320.505,301.897 301.991,275.317 Z M147.945,32.815 L158.217,20.487 C173.238,40.815 173.712,64.264 172.526,76.98 C172.255,76.976 171.984,76.971 171.712,76.969 C170.157,67.494 165.007,49.263 147.945,32.815 Z M230.861,495.967 C219.178,495.967 211.404,493.7 203.175,491.299 C194.226,488.689 184.974,485.99 171.001,485.99 C157.028,485.99 147.776,488.689 138.827,491.299 C130.597,493.7 122.822,495.967 111.141,495.967 C65.459,495.967 16.546,451.084 16.546,384.268 C16.546,337.056 35.163,310.328 53.167,284.48 C69.514,261.009 84.955,238.841 84.955,204.695 L84.955,179.04 C84.955,131.594 123.555,92.994 171.001,92.994 C218.447,92.994 257.047,131.594 257.047,179.04 L257.047,204.693 C257.047,238.84 272.488,261.009 288.836,284.479 C306.839,310.327 325.456,337.056 325.456,384.267 C325.456,451.084 276.543,495.967 230.861,495.967 Z" id="Shape" fill="#000000"></path>
            <path d="M111.14,461.763 C108.701,461.763 106.256,461.566 103.873,461.178 C81.115,457.471 54.893,431.989 51.123,392.063 C50.707,387.655 46.797,384.416 42.388,384.835 C37.98,385.251 34.744,389.162 35.16,393.57 C36.972,412.76 44.117,431.674 55.28,446.83 C67.696,463.689 83.608,474.122 101.295,477.003 C104.528,477.53 107.841,477.797 111.141,477.797 C115.568,477.797 119.158,474.208 119.158,469.78 C119.157,465.353 115.568,461.763 111.14,461.763 Z" id="Path" fill="#000000"></path>
            <path d="M238.875,204.694 L238.875,179.04 C238.875,168.886 236.675,159.11 232.338,149.985 C230.438,145.987 225.655,144.285 221.656,146.187 C217.657,148.087 215.957,152.87 217.858,156.87 C221.165,163.826 222.842,171.286 222.842,179.04 L222.842,204.693 C222.842,213.978 223.743,223.143 225.52,231.934 C226.289,235.738 229.632,238.364 233.369,238.364 C233.895,238.364 234.429,238.312 234.966,238.204 C239.306,237.327 242.113,233.098 241.236,228.758 C239.669,221.012 238.875,212.915 238.875,204.694 Z" id="Path" fill="#000000"></path>
            <path d="M209.794,123.368 C203.838,119.206 197.302,116.048 190.368,113.98 C186.126,112.717 181.661,115.13 180.394,119.371 C179.128,123.613 181.543,128.079 185.786,129.345 C191.075,130.922 196.062,133.332 200.61,136.511 C202.008,137.488 203.609,137.957 205.194,137.957 C207.724,137.957 210.214,136.762 211.773,134.531 C214.31,130.903 213.423,125.905 209.794,123.368 Z" id="Path" fill="#000000"></path>
        </g>
    </g>
</svg>