<?xml version="1.0" encoding="UTF-8"?>
<svg viewBox="0 0 344 512" version="1.1" xmlns="http://www.w3.org/2000/svg" xmlns:xlink="http://www.w3.org/1999/xlink">
    <!-- Generator: Sketch Beta 63.1 (92452) - https://sketch.com -->
    <title>038-pear-7</title>
    <desc>Created with Sketch Beta.</desc>
    <g id="Page-1" stroke="none" stroke-width="1" fill="none" fill-rule="evenodd">
        <g id="038-pear-7" fill-rule="nonzero">
            <path d="M317.279622,30.8895818 L317.269622,30.9195818 C312.305622,41.7675818 298.134622,68.3485818 272.095622,85.7015818 C251.369622,99.5225818 223.118622,107.498582 185.979622,97.0705818 C182.616622,96.1295818 179.174622,95.0385818 175.661622,93.7775818 C175.651622,93.7675818 175.641622,93.7675818 175.631622,93.7675818 C174.300622,93.2875818 173.649622,91.7955818 174.190622,90.4955818 C174.190622,90.4855818 174.190622,90.4855818 174.200622,90.4755818 C174.981622,88.5845818 175.781622,86.7325818 176.612622,84.9415818 C193.805622,47.3925818 219.685622,30.7505818 244.804622,24.3855818 C275.167622,16.6895818 304.409622,24.0255818 315.798622,27.6175818 L315.828622,27.6275818 C317.199622,28.0575818 317.880622,29.5885818 317.279622,30.8895818 Z" id="Path" fill="#DFEA73"></path>
            <path d="M214.022,87.557 L185.63,101.368 C182.267,100.427 178.825,99.336 175.312,98.075 C175.302,98.065 175.292,98.065 175.282,98.065 C173.951,97.585 173.3,96.093 173.841,94.793 C173.841,94.783 173.841,94.783 173.851,94.773 C174.632,92.882 175.432,91.03 176.263,89.239 L207.056,74.258 C206.796,74.798 206.536,75.349 206.285,75.899 C205.454,77.69 204.654,79.542 203.873,81.433 C203.863,81.443 203.863,81.443 203.863,81.453 C203.323,82.754 203.973,84.245 205.304,84.725 C205.314,84.725 205.324,84.725 205.334,84.735 C208.278,85.795 211.18,86.726 214.022,87.557 Z" id="Path" fill="#47821C"></path>
            <path d="M332.129,379.393 C332.129,448.946 275.216,505.849 205.663,505.849 L131.466,505.849 C96.69,505.849 65.075,491.618 42.148,468.701 C19.231,445.784 5,414.169 5,379.393 C5,346.608 20.302,317.236 44.11,298.051 C58.021,286.842 69.069,272.832 76.635,257.15 C84.201,241.468 88.294,224.135 88.294,206.271 C88.294,184.194 97.321,164.129 111.872,149.578 C126.423,135.027 146.488,126 168.565,126 C174.49,126 180.264,126.65 185.828,127.891 C201.01,131.244 214.61,138.929 225.258,149.578 C239.809,164.129 248.836,184.194 248.836,206.271 C248.836,241.988 265.198,275.644 293.02,298.051 C304.929,307.638 314.697,319.788 321.502,333.618 C328.306,347.459 332.129,363 332.129,379.393 Z" id="Path" fill="#5FD9B3"></path>
            <path d="M73.875,480.026 C38.138,458.5 15.941,419.42 15.941,378.038 C15.941,348.656 29.181,321.135 52.259,302.541 C81.852,278.703 98.965,243.436 99.2350895,205.787 C99.255,201.644 95.922,198.261 91.779,198.231 L91.729,198.231 C87.606,198.231 84.253,201.554 84.223,205.677 C83.993,238.802 68.901,269.846 42.841,290.852 C16.201,312.308 0.929,344.083 0.929,378.038 C0.929,401.486 7.154,424.614 18.923,444.899 C30.332,464.564 46.654,481.157 66.129,492.886 C67.34,493.617 68.681,493.967 69.992,493.967 C72.544,493.967 75.026,492.666 76.437,490.334 C78.569,486.781 77.428,482.167 73.875,480.026 Z" id="Path" fill="#000000"></path>
            <path d="M341.549,359.614 C340.858,355.531 336.996,352.759 332.902,353.449 C328.819,354.14 326.057,358.002 326.737,362.096 C327.618,367.33 328.058,372.684 328.058,378.038 C328.058,443.628 274.697,496.989 209.097,496.989 L134.9,496.989 C122.861,496.989 110.962,495.178 99.553,491.595 C95.59,490.354 91.387,492.556 90.146,496.509 C88.905,500.472 91.107,504.685 95.06,505.926 C107.93,509.959 121.33,512.001 134.9,512.001 L209.097,512.001 C282.973,512.001 343.069001,451.905 343.069001,378.039 C343.069001,371.863 342.56,365.659 341.549,359.614 Z" id="Path" fill="#000000"></path>
            <path d="M94.321,183.37 C98.194,184.861 102.527,182.92 104.008,179.057 C113.866,153.367 137.604,135.394 164.494,132.552 C166.966,132.282 169.478,132.152 172,132.152 C174.532,132.152 177.044,132.282 179.506,132.542 C216.114,136.305 244.766,167.328 244.766,204.917 C244.766,242.906 261.889,278.493 291.742,302.541 C302.84,311.488 312.007,322.947 318.252,335.676 C319.553,338.338 322.225,339.879 324.997,339.879 C326.108,339.879 327.229,339.629 328.29,339.108 C332.013,337.287 333.554,332.793 331.733,329.07 C324.527,314.379 313.959,301.159 301.16,290.851 C274.86,269.665 259.778,238.341 259.778,204.916 C259.778,159.051 224.401,121.282 179.507,117.469 L179.507,107.371 C192.837,111.504 205.787,113.546 218.227,113.546 C241.325,113.546 262.651,106.481 281.265,92.44 C305.634,74.066 319.064,48.547 323.727,38.379 C323.737,38.359 323.747,38.329 323.757,38.319 C324.938,35.737 324.958,32.775 323.807,30.183 C322.656,27.591 320.444,25.62 317.712,24.759 C307.074,21.406 279.103,14.221 249.09,19.975 C220.018,25.539 196.34,41.892 179.507,67.751 L179.507,7.506 C179.506,3.363 176.143,0 172,0 C167.857,0 164.494,3.363 164.494,7.506 L164.494,117.47 C131.419,120.362 102.056,142.219 89.997,173.673 C88.516,177.545 90.448,181.889 94.321,183.37 Z M307.503,37.419 C296.945,57.945 269.524,98.586 218.225,98.586 C211.321,98.586 203.986,97.845 196.211,96.225 L247.545,71.251 L261.857,79.898 C263.071,80.632 264.409,80.981 265.731,80.981 C268.272,80.981 270.753,79.689 272.162,77.355 C274.307,73.807 273.168,69.193 269.619,67.049 L263.625,63.428 L274.359,58.206 C278.087,56.393 279.638,51.901 277.825,48.173 C276.012,44.446 271.521,42.893 267.792,44.707 L235.641,60.348 L236.648,55.418 C237.477,51.356 234.858,47.391 230.796,46.562 C226.734,45.73 222.769,48.352 221.939,52.413 L218.628,68.623 L187.354,83.838 C220.91,22.408 281.685,30.553 307.503,37.419 Z" id="Shape" fill="#000000"></path>
        </g>
    </g>
</svg>