<?xml version="1.0" encoding="UTF-8"?>
<svg viewBox="0 0 224 378" version="1.1" xmlns="http://www.w3.org/2000/svg" xmlns:xlink="http://www.w3.org/1999/xlink">
    <!-- Generator: Sketch Beta 63.1 (92452) - https://sketch.com -->
    <title>036-icon-123239</title>
    <desc>Created with Sketch Beta.</desc>
    <g id="Page-1" stroke="none" stroke-width="1" fill="none" fill-rule="evenodd">
        <g id="036-icon-123239" fill-rule="nonzero">
            <g id="Group" transform="translate(0.000000, 42.000000)">
                <g transform="translate(24.000000, 0.000000)" fill="#5FD9B3" id="Path">
                    <path d="M64.006,5.106 C63.965,5.07 63.918,5.036 63.876,5 C63.917,5.036 63.965,5.071 64.006,5.106 Z"></path>
                    <path d="M62.564,4.024 C62.647,4.078 62.722,4.133 62.802,4.188 C62.722,4.134 62.647,4.078 62.564,4.024 Z"></path>
                    <path d="M60.818,3.057 C60.929,3.11 61.042,3.163 61.148,3.217 C61.041,3.163 60.929,3.111 60.818,3.057 Z"></path>
                    <path d="M65.744,7.095 C65.795,7.173 65.838,7.251 65.885,7.329 C65.838,7.251 65.795,7.174 65.744,7.095 Z"></path>
                    <path d="M66.276,8.046 C66.311,8.119 66.353,8.194 66.385,8.267 C66.353,8.194 66.312,8.12 66.276,8.046 Z"></path>
                    <path d="M58.941,2.272 C58.971,2.283 59.006,2.293 59.036,2.303 C59.006,2.292 58.971,2.283 58.941,2.272 Z"></path>
                    <path d="M64.897,6 C64.965,6.077 65.034,6.154 65.098,6.231 C65.034,6.154 64.966,6.077 64.897,6 Z"></path>
                    <path d="M4.698,6.976 C4.129,6.671 3.603,6.371 3.1,6.075 C3.602,6.372 4.129,6.671 4.698,6.976 Z"></path>
                    <path d="M56.468,1.534 C56.61,1.569 56.744,1.607 56.882,1.644 C56.744,1.608 56.61,1.57 56.468,1.534 Z"></path>
                    <path d="M10.894,9.941 C9.976,9.543 9.095,9.147 8.253,8.754 C9.095,9.148 9.975,9.544 10.894,9.941 Z"></path>
                    <path d="M66.622,8.884 C64.437,8.092 61.672,7.478 58.17,7.163 C54.207,6.806 49.31,6.409 43.965,6.409 C29.482,6.409 17.788,8.17 11.205,10.079 C21.551,14.521 36.236,19.03 48.084,20.509 C50.362,20.794 52.484,20.938 54.39,20.938 C65.98,20.938 66.596,16.009 67.003,12.748 C67.018,12.613 67.349,10.948 66.622,8.884 Z"></path>
                    <path d="M7.419,8.354 C6.762,8.038 6.132,7.725 5.532,7.415 C6.132,7.725 6.761,8.038 7.419,8.354 Z"></path>
                    <path d="M2.444,5.69 C1.775,5.278 1.159,4.875 0.64,4.49 C1.16,4.875 1.776,5.278 2.444,5.69 Z"></path>
                    <path d="M53.514,0.948 C53.687,0.975 53.864,1.001 54.033,1.03 C53.864,1.001 53.687,0.975 53.514,0.948 Z"></path>
                </g>
                <g transform="translate(0.000000, 51.000000)" id="Path">
                    <path d="M121.0465,1.4225 C121.3515,1.4715 121.6535,1.5235 121.9535,1.5775 C121.6535,1.5235 121.3515,1.4715 121.0465,1.4225 Z" fill="#FDD44B"></path>
                    <path d="M114.1085,0.474 C114.3685,0.492 114.6345,0.505 114.8915,0.526 C114.6335,0.505 114.3685,0.492 114.1085,0.474 Z" fill="#FDD44B"></path>
                    <path d="M0.5605,201 C0.5215,200.331692 0.4685,199.676923 0.4395,199 C0.4685,199.676923 0.5215,200.331692 0.5605,201 Z" fill="#FDD44B"></path>
                    <path d="M1.6165,208 C1.5365,207.33478 1.4505,206.674986 1.3835,206 C1.4515,206.674986 1.5365,207.33478 1.6165,208 Z" fill="#FDD44B"></path>
                    <path d="M126.1295,2.3895 C126.3815,2.4575 126.6225,2.5385 126.8705,2.6105 C126.6225,2.5375 126.3815,2.4575 126.1295,2.3895 Z" fill="#FDD44B"></path>
                    <path d="M143.848,12.872 C143.615,12.625 143.391,12.366 143.152,12.128 C143.391,12.366 143.615,12.625 143.848,12.872 Z" fill="#FDD44B"></path>
                    <path d="M149.171,20 C149.393,20.3306595 149.617,20.6586453 149.829,21 C149.617,20.657754 149.393,20.3297683 149.171,20 Z" fill="#FDD44B"></path>
                    <path d="M130.2665,4.412 C130.4195,4.473 130.5815,4.525 130.7335,4.588 C130.5815,4.526 130.4195,4.473 130.2665,4.412 Z" fill="#FDD44B"></path>
                    <path d="M1.6675,213 C1.5505,212.337648 1.4365,211.673139 1.3325,211 C1.4365,211.674218 1.5505,212.337648 1.6675,213 Z" fill="#FDD44B"></path>
                    <path d="M136.0745,6.2655 C136.3585,6.4215 136.6475,6.5715 136.9255,6.7345 C136.6475,6.5715 136.3585,6.4205 136.0745,6.2655 Z" fill="#FDD44B"></path>
                    <path d="M146.168,16.075 C146.389,16.358 146.618,16.632 146.832,16.925 C146.618,16.633 146.39,16.358 146.168,16.075 Z" fill="#FDD44B"></path>
                    <path d="M140.0685,9.1645 C140.3615,9.3825 140.6475,9.6075 140.9315,9.8355 C140.6465,9.6085 140.3605,9.3815 140.0685,9.1645 Z" fill="#FDD44B"></path>
                    <path d="M22,252 C21.6604303,251.672897 21.3320861,251.334749 21,251 C21.3320861,251.3339 21.6604303,251.672897 22,252 Z" fill="#FDD44B"></path>
                    <path d="M2.7115,218 C2.5625,217.34082 2.4245,216.67041 2.2885,216 C2.4245,216.67041 2.5625,217.34082 2.7115,218 Z" fill="#FDD44B"></path>
                    <path d="M24.02,254.024 C24.341,254.34 24.653,254.667 24.98,254.976 C24.653,254.667 24.341,254.34 24.02,254.024 Z" fill="#FDD44B"></path>
                    <path d="M187.266749,127.998265 C173.257824,111.240453 158.77271,93.9135497 158.77271,67.3406082 C158.77271,47.4651682 156.041065,32.4854836 150.243882,21.7874763 C142.896003,17.1920118 133.560454,15 122.026593,15 C87.1202464,15 72.2261698,34.9125547 72.2261698,81.5813745 C72.2261698,108.154316 57.7410558,125.482344 43.7321308,142.239031 C28.4425372,160.52979 14,177.804957 14,208.291804 C14,228.813938 19.5652507,245.239968 28.7204076,258.145732 C50.2004603,276.52759 80.9118602,284 108.973407,284 C158.806323,284 217,260.44234 217,194.049913 C217,163.564191 202.556342,146.287899 187.266749,127.998265 Z" fill="#FFDC64"></path>
                    <path d="M15.9915,245 C15.6595,244.669379 15.3305,244.337278 15.0085,244 C15.3305,244.337278 15.6595,244.669379 15.9915,245 Z" fill="#FDD44B"></path>
                    <path d="M19,249 C18.6612595,248.671329 18.3301527,248.336441 18,248 C18.3301527,248.336441 18.6612595,248.671329 19,249 Z" fill="#FDD44B"></path>
                    <path d="M13.9395,242 C13.6445,241.668379 13.3455,241.338958 13.0605,241 C13.3455,241.338958 13.6445,241.668379 13.9395,242 Z" fill="#FDD44B"></path>
                    <path d="M4.742,222 C4.571,221.343155 4.418,220.667894 4.258,220 C4.418,220.667894 4.572,221.341928 4.742,222 Z" fill="#FDD44B"></path>
                    <path d="M5.736,227 C5.57,226.673018 5.423,226.332317 5.264,226 C5.423,226.332317 5.569,226.673018 5.736,227 Z" fill="#FDD44B"></path>
                    <path d="M10.852,237 C10.618,236.666398 10.374,236.340048 10.148,236 C10.374,236.339243 10.618,236.665592 10.852,237 Z" fill="#FDD44B"></path>
                    <path d="M7.5755,231.652 C7.5275,231.549 7.4725,231.451 7.4245,231.348 C7.4725,231.451 7.5275,231.549 7.5755,231.652 Z" fill="#FDD44B"></path>
                </g>
            </g>
            <path d="M193.043,213.868 C181.285,199.856 171.131,187.755 171.131,169.603 C171.131,145.439 166.649,127.702 157.429,115.377 C148.751,103.777 135.9,97.17 119.163,95.684 L119.163,45.602 C119.231,42.913 119.442,14.057 98.195,1.101 C94.651,-1.063 90.022,0.059 87.859,3.607 C85.697,7.153 86.818,11.781 90.365,13.943 C98.288,18.775 101.654,27.83 103.083,34.96 C99.394,33.483 94.899,32.334 89.437,31.651 C84.88,31.082 79.324,30.782 73.367,30.782 C62.192,30.782 50.833,31.817 42.205,33.623 C33.617,35.421 22.062,38.905 20.881,48.371 C19.823,56.843 27.693,64.132 45.646,71.31 C57.645,76.109 72.393,80.082 83.218,81.435 C86.113,81.796 88.862,81.979 91.388,81.979 C96.518,81.979 100.702,81.222 104.121,79.967 L104.121,95.686 C87.384,97.173 74.533,103.777 65.855,115.377 C56.635,127.702 52.153,145.439 52.153,169.603 C52.153,187.755 41.999,199.855 30.241,213.868 C16.153,230.656 0.185,249.685 0.185,282.265 C0.185,311.689 11.708,336.271 33.51,353.351 C53.21,368.785 80.957,377.285 111.641,377.285 C142.325,377.285 170.073,368.785 189.772,353.351 C211.574,336.271 223.096,311.689 223.096,282.265 C223.099,249.684 207.131,230.656 193.043,213.868 Z M41.764,223.536 C54.267,208.636 67.196,193.23 67.196,169.603 C67.196,128.108 80.489,110.403 111.643,110.403 C142.797,110.403 156.09,128.108 156.09,169.603 C156.09,193.23 169.018,208.636 181.521,223.536 C195.167,239.799 208.057,255.159 208.057,282.265 C208.057,341.297 156.119,362.244 111.643,362.244 C67.167,362.244 15.229,341.297 15.229,282.265 C15.229,255.159 28.118,239.798 41.764,223.536 Z M87.572,46.578 C106.217,48.256 104.044,58.407 104.001,58.748 C103.594,62.009 102.977,66.938 91.388,66.938 C89.482,66.938 87.36,66.794 85.082,66.509 C67.994,64.375 44.981,55.939 37.639,50.49 C43.194,48.246 56.374,45.824 73.366,45.824 C78.712,45.824 83.609,46.221 87.572,46.578 Z" id="Shape" fill="#000000"></path>
        </g>
    </g>
</svg>