<?xml version="1.0" encoding="UTF-8"?>
<svg viewBox="0 0 1072 524" version="1.1" xmlns="http://www.w3.org/2000/svg" xmlns:xlink="http://www.w3.org/1999/xlink">
    <!-- Generator: Sketch Beta 63.1 (92452) - https://sketch.com -->
    <title>Untitled 49</title>
    <desc>Created with Sketch Beta.</desc>
    <g id="Page-1" stroke="none" stroke-width="1" fill="none" fill-rule="evenodd">
        <g id="Group-3" fill-rule="nonzero">
            <g id="Group-2" transform="translate(4.000000, 6.000000)">
                <g id="speed-(1)">
                    <path d="M496.523689,203.55557 L434.088432,273.700846 L422.74615,286.415825 C416.745087,293.181522 408.299871,297.283128 399.276803,297.810478 C390.24983,298.337827 381.386842,295.251856 374.640039,289.232261 L361.845321,277.884485 L357.07024,273.614908 L310.924138,232.485565 C307.414083,229.356625 302.03382,229.661316 298.898586,233.169166 L66.3056792,494.461006 C61.6282076,499.695436 55.0063455,502.781406 47.9940433,502.98844 C40.977837,503.199379 34.1841813,500.515757 29.2021671,495.570392 C26.2933894,492.722705 24.1772042,489.164074 23.0605454,485.246064 C20.4602156,476.144405 22.713054,466.347425 29.0342776,459.304382 L266.31637,192.719517 L294.720879,160.891054 C297.832685,157.359767 303.212949,157.016013 306.746431,160.121514 L338.559481,188.539785 L389.56656,233.934799 C393.076616,237.063738 398.456878,236.759048 401.592112,233.255104 L457.374273,170.61772 C464.300678,162.76998 475.076821,159.531664 485.177504,162.25435 C488.156561,163.141078 490.936494,164.590312 493.368934,166.52002 C498.858521,170.906785 502.31001,177.356072 502.907383,184.360054 C503.504757,191.364034 501.193353,198.305514 496.523689,203.55557 L496.523689,203.55557 Z" id="Path" fill="#BC51B6"></path>
                    <path d="M269.838495,139.085403 C271.344007,137.388441 272.118271,135.162403 271.985316,132.897175 C271.856273,130.628028 270.831743,128.507805 269.138529,126.99896 L205.351732,70.0625603 L192.588116,58.6697934 C178.494957,46.0934638 156.901609,47.3475695 144.349156,61.4680163 L132.989381,74.2598946 L70.4930237,144.583873 C65.8122483,149.847198 63.4972787,156.811403 64.0916628,163.838315 C64.6860469,170.865226 68.1350392,177.339547 73.6370017,181.736754 C84.8638223,190.100072 100.634552,188.316891 109.726283,177.664831 L165.578834,114.814538 C167.084347,113.117577 169.203795,112.090777 171.464019,111.957529 C173.724243,111.828199 175.949273,112.600258 177.638575,114.113024 L235.055295,165.358917 C236.744597,166.871683 238.969627,167.643741 241.229851,167.514412 C243.493985,167.381164 245.609523,166.354364 247.115035,164.657403 L269.838495,139.085403 Z" id="Path" fill="#BC51B6"></path>
                    <path d="M381.383742,412.498946 L370.016049,425.30785 L307.440915,495.410903 C302.764704,500.660326 296.135833,503.763856 289.103908,503.986653 C282.075896,504.21336 275.259194,501.543698 270.254279,496.606973 C266.748099,493.0813 264.364993,488.59408 263.418011,483.712077 L263.418011,483.626085 C261.946668,475.222317 264.404124,466.603571 270.086013,460.232343 L325.993145,397.555876 C329.123663,394.041928 328.818437,388.6557 325.308344,385.516991 L308.125715,370.319853 L308.125715,370.233861 L267.863346,334.457265 C266.497658,333.233834 265.54285,331.627346 265.128056,329.844965 C264.603695,327.159668 265.362845,324.380563 267.178545,322.332389 L289.917842,296.886564 C291.412665,295.174541 293.53359,294.138727 295.799303,294.013648 C298.068928,293.88466 300.291596,294.674224 301.970335,296.202536 L365.742892,352.98464 L378.562362,364.339497 C392.634039,376.874791 393.894072,398.415796 381.383742,412.498946 L381.383742,412.498946 Z" id="Path" fill="#BC51B6"></path>
                    <path d="M331.926161,126.64009 C304.277607,101.998077 301.220353,59.8436578 325.023821,31.470264 C341.066567,12.3508528 366.241882,3.47314387 390.731273,8.29023172 C415.216745,13.1112398 435.147691,30.8705779 442.747712,54.6463759 C450.343813,78.4182547 444.413524,104.443857 427.261543,122.575549 C401.80794,149.479124 359.578635,151.282102 331.926161,126.64009 Z" id="Path" fill="#BC51B6"></path>
                    <path d="M47.792039,511.999886 C38.807997,512.023206 30.1830035,508.465145 23.8254862,502.110628 C10.9192181,488.788405 10.7006663,467.682192 23.3298416,454.094385 L288.870351,155.709403 C295.134203,148.679207 305.905688,148.0543 312.938375,154.318987 L395.703184,228.089184 L451.441713,165.461848 C463.473773,151.323342 484.46646,149.104924 499.187488,160.411824 C506.52849,166.239076 511.125884,174.858878 511.88301,184.209039 C512.655747,193.547484 509.576507,202.796098 503.355585,209.802861 L429.645068,292.6342 C413.971777,310.194069 387.054774,311.756335 369.461349,296.12196 L305.792509,239.376556 L73.2884548,500.56789 C67.0636303,507.551219 58.255209,511.679507 48.9082141,511.999886 L47.792039,511.999886 Z" id="Shape" fill="#000000"></path>
                    <path d="M301.583807,167 L35.9312455,465.490595 C29.453819,472.351639 29.3444954,483.049554 35.6813629,490.039536 C39.0508731,493.28642 43.5682822,495.072011 48.2457731,495 C52.9271682,494.864929 57.343062,492.79802 60.4431688,489.289354 L293.029232,227.95233 C296.027823,224.556973 300.256305,222.505692 304.773715,222.259539 C309.287219,222.00557 313.714828,223.537193 317.107765,226.526202 L380.804408,283.321271 C391.365853,292.70246 407.526232,291.768639 416.935874,281.227012 L490.678579,198.367007 C493.794303,194.866155 495.336548,190.236123 494.938298,185.563111 C494.536142,180.890099 492.236442,176.58827 488.574099,173.665685 C480.905826,168.168253 470.297528,169.508423 464.237874,176.748466 L408.463291,239.404336 C402.200608,246.441204 391.420516,247.062449 384.388662,240.795299 L301.583807,167 Z" id="Path" stroke="#BC51B6" fill="#BC51B6"></path>
                    <path d="M88.6463598,194.999786 C81.094672,195.026955 73.7579632,192.46831 67.8557639,187.750075 C60.4956032,181.916835 55.8832881,173.290212 55.1171747,163.924164 C54.3432434,154.569853 57.4272412,145.305525 63.6538664,138.282944 L137.489995,55.314782 C153.167958,37.6898673 180.15391,36.124947 197.762792,51.8171856 L274.280318,120.02815 C277.661379,123.044533 279.70956,127.281555 279.971446,131.808086 C280.233331,136.334619 278.685469,140.778993 275.671829,144.163133 L252.942497,169.73393 C246.672876,176.783896 235.88084,177.409864 228.837287,171.138447 L171.449142,119.977289 L115.620587,182.718857 C108.792015,190.473037 98.9771642,194.944797 88.6463598,194.999786 Z M169.402913,58 C168.898251,58 168.39359,58 167.881105,58.0510446 C161.089692,58.4276624 154.728611,61.5151442 150.217955,66.623023 L76.3261353,149.812408 C73.2042758,153.331431 71.6629074,157.980308 72.0619415,162.668415 C72.4609766,167.360445 74.7691174,171.679781 78.4386715,174.614262 C86.1259555,180.122297 96.7434062,178.780596 102.830639,171.530703 L158.703308,108.615911 C164.978323,101.550403 175.779642,100.922707 182.829254,107.21144 L240.266764,158.51385 L263,132.911683 L186.420565,64.5163173 C181.745601,60.3107515 175.681839,57.988275 169.402913,58 Z" id="Shape" fill="#000000"></path>
                    <path d="M287.835492,511.999886 C278.835335,512.023215 270.194714,508.463655 263.828559,502.10646 C250.916479,488.770809 250.701539,467.667423 263.332242,454.069982 L319.130873,391.408439 L261.753403,340.324257 C258.369063,337.31172 256.321263,333.080103 256.059426,328.559344 C255.79759,324.038585 257.341255,319.59988 260.354334,316.220057 L283.063807,290.732668 C286.065162,287.333307 290.305357,285.278062 294.834747,285.027994 C299.348504,284.770111 303.784099,286.301777 307.172348,289.298685 L383.699089,357.453907 C392.156031,364.983295 397.275531,375.560386 397.92817,386.860328 C398.584716,398.164179 394.719689,409.260941 387.188946,417.716362 L313.378275,500.578701 C307.125452,507.54153 298.297247,511.648113 288.945368,511.948976 C288.578015,511.999886 288.202845,511.999886 287.835492,511.999886 L287.835492,511.999886 Z M295.741053,302 L272.982662,327.519122 L330.483728,378.65511 C337.537223,384.930304 338.159936,395.721291 331.877978,402.766712 L275.943486,465.467824 C269.45004,472.333395 269.34038,483.034458 275.692834,490.029051 C278.994386,493.39537 283.576613,495.197777 288.288082,494.98274 C292.983884,494.853717 297.417286,492.789354 300.53085,489.278374 L374.504432,406.363708 C383.927369,395.795577 382.987425,379.601277 372.405224,370.190441 L295.741053,302 Z" id="Shape" fill="#000000"></path>
                    <path d="M375.871671,154 C341.588181,153.937338 311.476051,131.218499 302.005301,98.2740283 C292.530634,65.3295575 305.980823,30.0940128 334.99234,11.8359149 C364.007774,-6.42610001 401.600936,-3.30867267 427.20878,19.4806614 C442.460684,33.0626177 451.692511,52.14707 452.871458,72.5356709 C454.050406,92.9242729 447.082472,112.944736 433.499113,128.195065 C419.951004,143.488475 400.848916,152.731098 380.446459,153.862928 C378.907169,154 377.383545,154 375.871671,154 L375.871671,154 Z M376.058353,17 C348.460647,16.976481 324.405838,35.7783953 317.767323,62.5687692 C311.128807,89.3552187 323.621144,117.216737 348.036912,130.082238 C372.452681,142.943814 402.494709,137.493927 420.833019,116.87146 C436.530833,99.2230851 440.411146,74.0060765 430.747634,52.4537154 C421.088045,30.9013543 399.677656,17.0235642 376.058353,17 L376.058353,17 Z" id="Shape" fill="#000000"></path>
                    <path d="M76.4980547,239 L8.49805468,239 C3.80544717,239 0,235.194552 0,230.501945 C0,225.805447 3.80544717,222 8.49805468,222 L76.4980547,222 C81.194552,222 85,225.805447 85,230.501945 C85,235.194552 81.194552,239 76.4980547,239 Z" id="Path" fill="#000000"></path>
                    <path d="M110.501946,273 L42.4980544,273 C37.8054479,273 34,269.194553 34,264.501945 C34,259.805447 37.8054479,256 42.4980544,256 L110.501946,256 C115.194552,256 119,259.805447 119,264.501945 C119,269.194553 115.194552,273 110.501946,273 Z" id="Path" fill="#000000"></path>
                </g>
                <g id="pear-(3)" transform="translate(523.000000, 0.000000)">
                    <path d="M245.18,7 C203.107,7 169,41.1511957 169,83.2787136 L169,109 L192.82,109 C234.893,109 269,74.8488043 269,32.7212864 L269,30.8508658 C269,17.6788196 258.335,7 245.18,7 Z" id="Path" fill="#5FD9B3"></path>
                    <g id="Group" transform="translate(8.000000, 132.000000)" fill="#5FD9B3">
                        <path d="M270.86625,92.9509121 C260.424187,83.1859213 252.50975,71.0989327 247.095976,57.8589453 C241.295718,43.6729587 232.091004,31.2489704 220.512458,21.5799796 C204.384984,8.11399232 183.643668,0 161.00089,0 C122.103807,0 88.7882739,23.9119774 74.9078005,57.8559453 C69.5169958,71.0389328 61.6794568,83.1139214 51.2713488,92.8249122 C19.2850417,122.668884 -0.55347927,165.394844 0.0117662822,212.755799 C1.08034003,302.261714 73.8452188,373.198647 163.229915,371.984648 C191.886666,371.594648 218.732833,363.704656 241.904905,350.190669 C289.802974,322.257695 322,270.287744 322,210.784801 C322,164.275845 302.329255,122.373884 270.86625,92.9509121 L270.86625,92.9509121 Z" id="Path"></path>
                    </g>
                    <g id="Group" transform="translate(60.000000, 265.000000)" fill="#FF8E9E">
                        <ellipse id="Oval" cx="29.5" cy="23.5" rx="29.5" ry="23.5"></ellipse>
                        <ellipse id="Oval" cx="188.5" cy="23.5" rx="29.5" ry="23.5"></ellipse>
                    </g>
                    <g id="Group" fill="#000000">
                        <path d="M283.483444,219.97 C274.155374,211.248 266.770818,200.329 261.531519,187.518 C247.565381,153.363 215.127866,128.247 175.991918,125.302 L175.991918,116.869 L192.291073,116.869 C207.319852,116.869 222.06,112.827 234.916558,105.181 C238.473009,103.066 239.643512,98.463 237.531214,94.903 C235.418915,91.341 230.822793,90.172 227.265343,92.285 C216.722826,98.556 204.629293,101.87 192.291073,101.87 L186.58537,101.87 L209.050639,79.376 C211.975897,76.446 211.975897,71.698 209.050639,68.769 C206.12538,65.841 201.382446,65.841 198.458186,68.769 L175.99092,91.261 L175.99092,83.681 C175.99092,45.81 206.762565,15 244.584194,15 C253.5707,15 260.882349,22.321 260.882349,31.319 C260.882349,46.859 257.239009,60.933 247.230809,74.313 C244.75098,77.628 245.424119,82.33 248.735884,84.812 C252.047648,87.295 256.742644,86.62 259.221473,83.305 C271.048348,67.495 275.86319,50.403 275.86319,31.319 C275.86319,14.05 261.832135,1.0658141e-14 244.584194,1.0658141e-14 C198.502129,1.0658141e-14 161.010079,37.539 161.010079,83.681 L161.010079,125.277 C123.115544,128.065 90.0488337,151.869 75.4704784,187.515 C70.2161983,200.363 62.8785826,211.238 53.6583746,219.838 C19.5569879,251.652 -5.68434189e-14,296.648 -5.68434189e-14,343.285 C-5.68434189e-14,393.817 22.2445507,441.425 61.061906,473.507 C64.252825,476.144 68.9737872,475.693 71.607419,472.497 C74.2410508,469.303 73.7896281,464.575 70.5987091,461.938 C35.3447964,432.801 14.9808405,389.472 14.9808405,343.285 C14.9808405,300.794 32.8010497,259.8 63.8713129,230.812 C74.6864811,220.722 83.2535244,208.067 89.334747,193.198 C102.550844,160.882 133.626101,140 168.500499,140 C203.533694,140 234.668875,161.419 247.668249,193.201 C253.730496,208.029 262.340484,220.723 273.258521,230.932 C304.246889,259.908 322.019159,300.859 322.019159,343.285 C322.019159,426.933 254.293776,496.999 168.46854,496.999 C142.424848,496.999 116.738699,490.425 94.1855431,477.986 C90.5611784,475.99 86.0070029,477.309 84.0105562,480.937 C82.0141096,484.565 83.334421,489.126 86.9577869,491.125 C111.719119,504.781 139.905071,512 168.46854,512 C261.565476,512 337,436.431 337,343.285 C337,296.718 317.493947,251.771 283.483444,219.97 L283.483444,219.97 Z" id="Path"></path>
                        <path d="M114,265.5 L114,253.5 C114,249.357 110.642,246 106.5,246 C102.358,246 99,249.357 99,253.5 L99,265.5 C99,269.643 102.358,273 106.5,273 C110.642,273 114,269.642 114,265.5 Z" id="Path"></path>
                        <path d="M239,265.5 L239,253.5 C239,249.357 235.642,246 231.5,246 C227.358,246 224,249.357 224,253.5 L224,265.5 C224,269.643 227.358,273 231.5,273 C235.642,273 239,269.642 239,265.5 Z" id="Path"></path>
                        <path d="M169,280 C177.490477,280 185.564342,276.410535 191.151552,270.151705 C193.876557,267.098068 193.551079,262.46628 190.423482,259.804737 C187.295886,257.144172 182.550913,257.461953 179.825909,260.51559 C177.092893,263.578026 173.147094,265.334136 169,265.334136 C164.852906,265.334136 160.907107,263.578026 158.174091,260.51559 C155.448085,257.462931 150.704114,257.145149 147.576518,259.804737 C144.448921,262.46628 144.123443,267.098068 146.848448,270.151705 C152.435658,276.410535 160.509523,280 169,280 L169,280 Z" id="Path"></path>
                    </g>
                </g>
                <g id="food-and-restaurant" transform="translate(908.000000, 313.000000) rotate(-19.000000) translate(-908.000000, -313.000000) translate(773.000000, 112.000000)">
                    <path d="M138.517502,13.2322229 C133.378871,6.12929662 123.475016,4.55025907 116.39436,9.70426898 C109.314486,14.8582789 107.739618,24.794069 112.877468,31.8969952 C118.499652,39.6683676 121.66423,49.1653185 122.343861,60.2021249 L120.079207,85.6203194 C116.893537,100.338673 110.562038,116.622743 101.120643,134.265647 C96.9827091,141.997837 99.8769973,151.630358 107.584163,155.780523 C107.827892,155.912175 108.073184,156.03599 108.320819,156.153537 C115.893621,159.743398 125.025667,156.783584 129.032361,149.296674 C166.958083,78.4272744 155.123139,36.1874322 138.517502,13.2322229 Z" id="Path" fill="#F8D4A9"></path>
                    <path d="M20.1713863,209.416228 C10.4024855,227.551213 6.45850969,245.37962 6.45850969,267.426594 C6.45850969,338.384375 64.9890805,396.531606 135.887653,396.031963 C206.429103,395.528973 263.45851,338.143493 263.45851,267.427376 C263.45851,224.094398 242.042104,185.771455 209.226693,162.471582 C201.341085,156.872636 196.737566,147.725371 196.737566,138.049416 L196.737566,119.86125 C196.737566,85.8554157 168.936717,58.0319631 134.95851,58.0319631 C100.980302,58.0319631 73.1794531,85.8554157 73.1794531,119.86125 L73.1794531,138.054891 C73.1794531,147.784027 68.4876301,156.921125 60.5652946,162.560739 C50.0626128,170.036689 40.7313238,179.052564 32.8996364,189.279888 L20.1713863,209.416228 Z" id="Path" fill="#DFEA73"></path>
                    <path d="M120.956065,264.96178 C120.097565,272.57997 120.81012,279.313203 122.551314,285.100066 C131.272115,314.076901 174.805879,302.534666 167.841101,273.078349 C166.508865,267.44344 164.290032,261.301491 160.222302,254.870592 C151.760612,261.956548 140.696886,267.480444 121.473506,262.181724 L120.956065,264.96178 Z" id="Path" fill="#EF7D92"></path>
                    <path d="M212.966982,157.398656 C206.686245,152.938214 202.93689,145.585337 202.93689,137.731983 L202.93689,119.518184 C202.93689,90.7332543 184.924653,66.0845136 159.593624,56.2684077 C158.232498,38.7751719 152.688647,23.1937781 143.077062,9.93306729 C136.039883,0.224262687 122.426274,-1.94212595 112.730205,5.10294483 C103.157733,12.0587284 100.949423,25.8904071 107.90603,35.4879944 C111.807925,40.8718539 114.389371,47.30053 115.600304,54.6322596 C87.8067327,63.0761626 67.5173472,88.9670914 67.5173472,119.517401 L67.5173472,137.737465 C67.5173472,145.575939 63.7194922,152.96171 57.3566182,157.491859 C46.3580926,165.323284 36.6182176,174.734465 28.4060894,185.463806 C26.4348032,188.039036 26.9229312,191.726439 29.4942081,193.699372 C32.0662673,195.672305 35.7491307,195.184359 37.7196346,192.609912 C45.2191272,182.81182 54.1141653,174.217539 64.1575558,167.06595 C73.6087782,160.335734 79.2511939,149.371426 79.2511939,137.737465 L79.2511939,119.517401 C79.2511939,88.6138589 104.362408,63.4724723 135.227118,63.4724723 C166.091829,63.4724723 191.203043,88.6138589 191.203043,119.517401 L191.203043,137.731199 C191.203043,149.385524 196.80087,160.32007 206.176996,166.980579 C238.622646,190.02685 257.992881,227.528243 257.992881,267.297844 C257.992881,299.975381 245.326584,330.738726 222.325898,353.921278 C199.336945,377.092081 168.72021,389.980762 136.114979,390.211812 C135.821633,390.214161 135.529069,390.214945 135.234941,390.214945 C102.804153,390.214945 72.1678618,377.498572 48.8839987,354.349699 C25.3951843,330.997972 12.4597917,300.081899 12.4597917,267.297061 C12.4597917,245.484363 16.3546466,228.943523 25.4835793,211.989927 C27.0214955,209.134304 25.9560622,205.571432 23.1039552,204.03162 C20.2526305,202.491808 16.6933636,203.558555 15.1554475,206.414178 C5.17620197,224.947531 0.725945044,243.723682 0.725945044,267.296278 C0.725945044,303.235146 14.891827,337.111793 40.615548,362.686301 C66.1163259,388.039157 99.6806033,401.963256 135.231812,401.963256 C135.551755,401.963256 135.877174,401.963256 136.197116,401.963256 C171.919639,401.70636 205.463578,387.586456 230.649889,362.200704 C255.847933,336.802421 269.725945,303.098865 269.725945,267.297844 C269.725945,223.728056 248.508803,182.644211 212.966982,157.398656 L212.966982,157.398656 Z M134.878732,51.5853724 C132.118106,51.5853724 129.396693,51.7547915 126.720768,52.074892 C125.172621,43.1636055 121.916337,35.2547802 117.008383,28.5217388 C113.810919,24.1355808 114.826547,17.7733875 119.233354,14.5903391 C123.706039,11.3604466 129.984111,12.353539 133.228631,16.8052786 C140.77016,27.1499909 145.431069,39.1998241 147.140775,52.6924518 C143.16218,51.9671509 139.064375,51.5853724 134.878732,51.5853724 L134.878732,51.5853724 Z" id="Shape" fill="#000000"></path>
                    <path d="M116.817387,286.858086 C121.520292,302.223278 137.166615,310.6288 152.791789,306.431089 C166.379612,302.781885 177.892486,289.76533 173.607861,271.950502 C171.882262,264.774071 169.132112,258.313186 165.199186,252.200361 C163.454004,249.487349 159.821864,248.692557 157.086597,250.421986 C150.745039,254.43479 144.461444,258.166347 136.726403,258.626285 C128.729742,259.101762 121.198358,255.931142 114.718156,251.515893 C112.044769,249.69401 108.38678,250.367602 106.549953,253.020014 C104.713126,255.672427 105.391459,259.299877 108.066413,261.12176 C110.366168,262.688035 112.658873,264.053864 114.946878,265.222355 C114.141651,272.871155 114.763587,280.149363 116.817387,286.858086 L116.817387,286.858086 Z M137.239971,269.857761 L139.1023,277.629947 C139.85064,280.752061 143.129083,282.694145 146.249491,281.868971 C149.254472,281.074587 151.126872,277.96248 150.40642,274.955059 L148.613037,267.469221 C151.614919,266.403114 154.627647,264.992159 157.655094,263.236355 C159.357064,266.685613 160.664723,270.304217 161.597437,274.189156 C164.249164,285.235866 157.320432,292.36377 149.276163,294.528312 C141.053717,296.73981 131.240855,294.011039 127.853957,282.92661 C126.536227,278.61369 125.9986,273.938986 126.221708,269.001027 C129.837136,269.79849 133.543201,270.094845 137.239971,269.857761 L137.239971,269.857761 Z" id="Shape" fill="#000000"></path>
                    <path d="M82.6759429,248.501087 L80.7788558,236.523351 C80.2659823,233.285195 77.1968598,231.080205 73.9240558,231.598566 C70.6512517,232.116927 68.4137222,235.162409 68.9265957,238.400564 L70.8236829,250.378301 C71.3365564,253.616457 74.4056788,255.821447 77.6784829,255.303086 C80.951287,254.784725 83.1888164,251.739243 82.6759429,248.501087 Z" id="Path" fill="#000000"></path>
                    <path d="M202.02311,246.370922 L202.02311,234.243882 C202.02311,230.965362 199.33671,228.307402 196.02311,228.307402 C192.70951,228.307402 190.02311,230.965362 190.02311,234.243882 L190.02311,246.370922 C190.02311,249.649442 192.70951,252.307402 196.02311,252.307402 C199.33671,252.307402 202.02311,249.649442 202.02311,246.370922 Z" id="Path" fill="#000000"></path>
                </g>
            </g>
        </g>
    </g>
</svg>